<?xml version="1.0" standalone="no"?>
<!DOCTYPE svg PUBLIC "-//W3C//DTD SVG 20010904//EN"
 "http://www.w3.org/TR/2001/REC-SVG-20010904/DTD/svg10.dtd">
<svg version="1.0" xmlns="http://www.w3.org/2000/svg"
 width="500.000000pt" height="500.000000pt" viewBox="0 0 500.000000 500.000000"
 preserveAspectRatio="xMidYMid meet">

<g transform="translate(0.000000,500.000000) scale(0.100000,-0.100000)"
fill="#000000" stroke="none">
<path d="M260 2505 l0 -2255 605 0 605 0 0 2255 0 2255 -605 0 -605 0 0 -2255z"/>
<path d="M1710 2505 l0 -2255 770 0 770 0 0 2255 0 2255 -770 0 -770 0 0
-2255z"/>
<path d="M3490 2505 l0 -2255 615 0 615 0 0 2255 0 2255 -615 0 -615 0 0
-2255z"/>
</g>
</svg>
