<?xml version="1.0" standalone="no"?>
<!DOCTYPE svg PUBLIC "-//W3C//DTD SVG 20010904//EN"
 "http://www.w3.org/TR/2001/REC-SVG-20010904/DTD/svg10.dtd">
<svg version="1.0" xmlns="http://www.w3.org/2000/svg"
 width="500.000000pt" height="500.000000pt" viewBox="0 0 500.000000 500.000000"
 preserveAspectRatio="xMidYMid meet">

<g transform="translate(0.000000,500.000000) scale(0.100000,-0.100000)"
fill="#000000" stroke="none">
<path d="M260 2505 l0 -2255 475 0 475 0 0 2255 0 2255 -475 0 -475 0 0 -2255z"/>
<path d="M1450 2505 l0 -2255 465 0 465 0 0 2255 0 2255 -465 0 -465 0 0
-2255z"/>
<path d="M2620 2505 l0 -2255 500 0 500 0 0 2255 0 2255 -500 0 -500 0 0
-2255z"/>
<path d="M3860 2505 l0 -2255 430 0 430 0 0 2255 0 2255 -430 0 -430 0 0
-2255z"/>
</g>
</svg>
