<?xml version="1.0" standalone="no"?>
<!DOCTYPE svg PUBLIC "-//W3C//DTD SVG 20010904//EN"
 "http://www.w3.org/TR/2001/REC-SVG-20010904/DTD/svg10.dtd">
<svg version="1.0" xmlns="http://www.w3.org/2000/svg"
 width="500.000000pt" height="500.000000pt" viewBox="0 0 500.000000 500.000000"
 preserveAspectRatio="xMidYMid meet">

<g transform="translate(0.000000,500.000000) scale(0.100000,-0.100000)"
fill="#000000" stroke="none">
<path d="M260 2505 l0 -2255 305 0 305 0 0 2255 0 2255 -305 0 -305 0 0 -2255z"/>
<path d="M1110 3690 l0 -1070 355 0 355 0 0 1070 0 1070 -355 0 -355 0 0
-1070z"/>
<path d="M2060 3690 l0 -1070 360 0 360 0 0 1070 0 1070 -360 0 -360 0 0
-1070z"/>
<path d="M3020 3690 l0 -1070 335 0 335 0 0 1070 0 1070 -335 0 -335 0 0
-1070z"/>
<path d="M3930 3690 l0 -1070 395 0 395 0 0 1070 0 1070 -395 0 -395 0 0
-1070z"/>
<path d="M1110 1315 l0 -1065 355 0 355 0 0 1065 0 1065 -355 0 -355 0 0
-1065z"/>
<path d="M2060 1315 l0 -1065 360 0 360 0 0 1065 0 1065 -360 0 -360 0 0
-1065z"/>
<path d="M3020 1315 l0 -1065 335 0 335 0 0 1065 0 1065 -335 0 -335 0 0
-1065z"/>
<path d="M3930 1315 l0 -1065 395 0 395 0 0 1065 0 1065 -395 0 -395 0 0
-1065z"/>
</g>
</svg>
