<?xml version="1.0" standalone="no"?>
<!DOCTYPE svg PUBLIC "-//W3C//DTD SVG 20010904//EN"
 "http://www.w3.org/TR/2001/REC-SVG-20010904/DTD/svg10.dtd">
<svg version="1.0" xmlns="http://www.w3.org/2000/svg"
 width="500.000000pt" height="500.000000pt" viewBox="0 0 500.000000 500.000000"
 preserveAspectRatio="xMidYMid meet">

<g transform="translate(0.000000,500.000000) scale(0.100000,-0.100000)"
fill="#000000" stroke="none">
<path d="M2492 4993 l2498 -3 3 -2498 2 -2497 3 2503 2 2502 -2502 -2 -2503
-3 2497 -2z"/>
<path d="M250 2495 l0 -2255 1040 0 1040 0 0 2255 0 2255 -1040 0 -1040 0 0
-2255z"/>
<path d="M2570 2495 l0 -2255 1070 0 1070 0 0 2255 0 2255 -1070 0 -1070 0 0
-2255z"/>
</g>
</svg>
