<?xml version="1.0" standalone="no"?>
<!DOCTYPE svg PUBLIC "-//W3C//DTD SVG 20010904//EN"
 "http://www.w3.org/TR/2001/REC-SVG-20010904/DTD/svg10.dtd">
<svg version="1.0" xmlns="http://www.w3.org/2000/svg"
 width="500.000000pt" height="500.000000pt" viewBox="0 0 500.000000 500.000000"
 preserveAspectRatio="xMidYMid meet">

<g transform="translate(0.000000,500.000000) scale(0.100000,-0.100000)"
fill="#000000" stroke="none">
<path d="M260 2505 l0 -2255 475 0 475 0 0 2255 0 2255 -475 0 -475 0 0 -2255z"/>
<path d="M1450 3690 l0 -1070 465 0 465 0 0 1070 0 1070 -465 0 -465 0 0
-1070z"/>
<path d="M2620 3690 l0 -1070 500 0 500 0 0 1070 0 1070 -500 0 -500 0 0
-1070z"/>
<path d="M3860 3690 l0 -1070 430 0 430 0 0 1070 0 1070 -430 0 -430 0 0
-1070z"/>
<path d="M1457 2393 c-4 -3 -7 -487 -7 -1075 l0 -1068 465 0 465 0 0 1075 0
1075 -458 0 c-252 0 -462 -3 -465 -7z"/>
<path d="M2620 1325 l0 -1075 500 0 500 0 0 1075 0 1075 -500 0 -500 0 0
-1075z"/>
<path d="M3860 1325 l0 -1075 430 0 430 0 0 1075 0 1075 -430 0 -430 0 0
-1075z"/>
</g>
</svg>
