<?xml version="1.0" standalone="no"?>
<!DOCTYPE svg PUBLIC "-//W3C//DTD SVG 20010904//EN"
 "http://www.w3.org/TR/2001/REC-SVG-20010904/DTD/svg10.dtd">
<svg version="1.0" xmlns="http://www.w3.org/2000/svg"
 width="500.000000pt" height="500.000000pt" viewBox="0 0 500.000000 500.000000"
 preserveAspectRatio="xMidYMid meet">

<g transform="translate(0.000000,500.000000) scale(0.100000,-0.100000)"
fill="#000000" stroke="none">
<path d="M260 3690 l0 -1070 475 0 475 0 0 1070 0 1070 -475 0 -475 0 0 -1070z"/>
<path d="M1450 3690 l0 -1070 465 0 465 0 0 1070 0 1070 -465 0 -465 0 0
-1070z"/>
<path d="M2620 3690 l0 -1070 500 0 500 0 0 1070 0 1070 -500 0 -500 0 0
-1070z"/>
<path d="M3860 3690 l0 -1070 430 0 430 0 0 1070 0 1070 -430 0 -430 0 0
-1070z"/>
<path d="M260 1315 l0 -1065 475 0 475 0 0 1065 0 1065 -475 0 -475 0 0 -1065z"/>
<path d="M1450 1315 l0 -1065 465 0 465 0 0 1065 0 1065 -465 0 -465 0 0
-1065z"/>
<path d="M2620 1315 l0 -1065 500 0 500 0 0 1065 0 1065 -500 0 -500 0 0
-1065z"/>
<path d="M3860 1315 l0 -1065 430 0 430 0 0 1065 0 1065 -430 0 -430 0 0
-1065z"/>
</g>
</svg>
