<svg width="0" height="0" class="hidden">
  <symbol version="1.0" xmlns="http://www.w3.org/2000/svg" preserveAspectRatio="xMidYMid meet" viewBox="0 0 500.000000 500.000000" id="cap-01">
    <g transform="translate(0.000000,500.000000) scale(0.100000,-0.100000)" fill="#000000" stroke="none">
      <path d="M260 2505 l0 -2255 2230 0 2230 0 0 2255 0 2255 -2230 0 -2230 0 0
-2255z"></path>
    </g>
  </symbol>
  <symbol version="1.0" xmlns="http://www.w3.org/2000/svg" preserveAspectRatio="xMidYMid meet" viewBox="0 0 500.000000 500.000000" id="cap-02">
    <g transform="translate(0.000000,500.000000) scale(0.100000,-0.100000)" fill="#000000" stroke="none">
      <path d="M2492 4993 l2498 -3 3 -2498 2 -2497 3 2503 2 2502 -2502 -2 -2503
-3 2497 -2z"></path>
      <path d="M250 2495 l0 -2255 1040 0 1040 0 0 2255 0 2255 -1040 0 -1040 0 0
-2255z"></path>
      <path d="M2570 2495 l0 -2255 1070 0 1070 0 0 2255 0 2255 -1070 0 -1070 0 0
-2255z"></path>
    </g>
  </symbol>
  <symbol version="1.0" xmlns="http://www.w3.org/2000/svg" preserveAspectRatio="xMidYMid meet" viewBox="0 0 500.000000 500.000000" id="cap-03">
    <g transform="translate(0.000000,500.000000) scale(0.100000,-0.100000)" fill="#000000" stroke="none">
      <path d="M260 2505 l0 -2255 605 0 605 0 0 2255 0 2255 -605 0 -605 0 0 -2255z"></path>
      <path d="M1710 2505 l0 -2255 770 0 770 0 0 2255 0 2255 -770 0 -770 0 0
-2255z"></path>
      <path d="M3490 2505 l0 -2255 615 0 615 0 0 2255 0 2255 -615 0 -615 0 0
-2255z"></path>
    </g>
  </symbol>
  <symbol version="1.0" xmlns="http://www.w3.org/2000/svg" preserveAspectRatio="xMidYMid meet" viewBox="0 0 500.000000 500.000000" id="cap-04">
    <g transform="translate(0.000000,500.000000) scale(0.100000,-0.100000)" fill="#000000" stroke="none">
      <path d="M260 2505 l0 -2255 475 0 475 0 0 2255 0 2255 -475 0 -475 0 0 -2255z"></path>
      <path d="M1450 2505 l0 -2255 465 0 465 0 0 2255 0 2255 -465 0 -465 0 0
-2255z"></path>
      <path d="M2620 2505 l0 -2255 500 0 500 0 0 2255 0 2255 -500 0 -500 0 0
-2255z"></path>
      <path d="M3860 2505 l0 -2255 430 0 430 0 0 2255 0 2255 -430 0 -430 0 0
-2255z"></path>
    </g>
  </symbol>
  <symbol version="1.0" xmlns="http://www.w3.org/2000/svg" preserveAspectRatio="xMidYMid meet" viewBox="0 0 500.000000 500.000000" id="cap-05">
    <g transform="translate(0.000000,500.000000) scale(0.100000,-0.100000)" fill="#000000" stroke="none">
      <path d="M260 2505 l0 -2255 475 0 475 0 0 2255 0 2255 -475 0 -475 0 0 -2255z"></path>
      <path d="M1450 3690 l0 -1070 465 0 465 0 0 1070 0 1070 -465 0 -465 0 0
-1070z"></path>
      <path d="M2620 3690 l0 -1070 500 0 500 0 0 1070 0 1070 -500 0 -500 0 0
-1070z"></path>
      <path d="M3860 3690 l0 -1070 430 0 430 0 0 1070 0 1070 -430 0 -430 0 0
-1070z"></path>
      <path d="M1450 1325 l0 -1075 1635 0 1635 0 0 1075 0 1075 -1635 0 -1635 0 0
-1075z"></path>
    </g>
  </symbol>
  <symbol version="1.0" xmlns="http://www.w3.org/2000/svg" preserveAspectRatio="xMidYMid meet" viewBox="0 0 500.000000 500.000000" id="cap-06">
    <g transform="translate(0.000000,500.000000) scale(0.100000,-0.100000)" fill="#000000" stroke="none">
      <path d="M260 2505 l0 -2255 475 0 475 0 0 2255 0 2255 -475 0 -475 0 0 -2255z"></path>
      <path d="M1450 3685 l0 -1075 465 0 465 0 0 1075 0 1075 -465 0 -465 0 0
-1075z"></path>
      <path d="M2620 3685 l0 -1075 500 0 500 0 0 1075 0 1075 -500 0 -500 0 0
-1075z"></path>
      <path d="M3860 2505 l0 -2255 430 0 430 0 0 2255 0 2255 -430 0 -430 0 0
-2255z"></path>
      <path d="M1450 1320 l0 -1070 465 0 465 0 0 1070 0 1070 -465 0 -465 0 0
-1070z"></path>
      <path d="M2620 1320 l0 -1070 500 0 500 0 0 1070 0 1070 -500 0 -500 0 0
-1070z"></path>
    </g>
  </symbol>
  <symbol version="1.0" xmlns="http://www.w3.org/2000/svg" preserveAspectRatio="xMidYMid meet" viewBox="0 0 500.000000 500.000000" id="cap-07">
    <g transform="translate(0.000000,500.000000) scale(0.100000,-0.100000)" fill="#000000" stroke="none">
      <path d="M260 2505 l0 -2255 475 0 475 0 0 2255 0 2255 -475 0 -475 0 0 -2255z"></path>
      <path d="M1450 3690 l0 -1070 465 0 465 0 0 1070 0 1070 -465 0 -465 0 0
-1070z"></path>
      <path d="M2620 3690 l0 -1070 500 0 500 0 0 1070 0 1070 -500 0 -500 0 0
-1070z"></path>
      <path d="M3860 3690 l0 -1070 430 0 430 0 0 1070 0 1070 -430 0 -430 0 0
-1070z"></path>
      <path d="M1457 2393 c-4 -3 -7 -487 -7 -1075 l0 -1068 465 0 465 0 0 1075 0
1075 -458 0 c-252 0 -462 -3 -465 -7z"></path>
      <path d="M2620 1325 l0 -1075 500 0 500 0 0 1075 0 1075 -500 0 -500 0 0
-1075z"></path>
      <path d="M3860 1325 l0 -1075 430 0 430 0 0 1075 0 1075 -430 0 -430 0 0
-1075z"></path>
    </g>
  </symbol>
  <symbol version="1.0" xmlns="http://www.w3.org/2000/svg" preserveAspectRatio="xMidYMid meet" viewBox="0 0 500.000000 500.000000" id="cap-08">
    <g transform="translate(0.000000,500.000000) scale(0.100000,-0.100000)" fill="#000000" stroke="none">
      <path d="M260 3690 l0 -1070 475 0 475 0 0 1070 0 1070 -475 0 -475 0 0 -1070z"></path>
      <path d="M1450 3690 l0 -1070 465 0 465 0 0 1070 0 1070 -465 0 -465 0 0
-1070z"></path>
      <path d="M2620 3690 l0 -1070 500 0 500 0 0 1070 0 1070 -500 0 -500 0 0
-1070z"></path>
      <path d="M3860 3690 l0 -1070 430 0 430 0 0 1070 0 1070 -430 0 -430 0 0
-1070z"></path>
      <path d="M260 1315 l0 -1065 475 0 475 0 0 1065 0 1065 -475 0 -475 0 0 -1065z"></path>
      <path d="M1450 1315 l0 -1065 465 0 465 0 0 1065 0 1065 -465 0 -465 0 0
-1065z"></path>
      <path d="M2620 1315 l0 -1065 500 0 500 0 0 1065 0 1065 -500 0 -500 0 0
-1065z"></path>
      <path d="M3860 1315 l0 -1065 430 0 430 0 0 1065 0 1065 -430 0 -430 0 0
-1065z"></path>
    </g>
  </symbol>
  <symbol version="1.0" xmlns="http://www.w3.org/2000/svg" preserveAspectRatio="xMidYMid meet" viewBox="0 0 500.000000 500.000000" id="cap-09">
    <g transform="translate(0.000000,500.000000) scale(0.100000,-0.100000)" fill="#000000" stroke="none">
      <path d="M260 2505 l0 -2255 305 0 305 0 0 2255 0 2255 -305 0 -305 0 0 -2255z"></path>
      <path d="M1110 3690 l0 -1070 355 0 355 0 0 1070 0 1070 -355 0 -355 0 0
-1070z"></path>
      <path d="M2060 3690 l0 -1070 360 0 360 0 0 1070 0 1070 -360 0 -360 0 0
-1070z"></path>
      <path d="M3020 3690 l0 -1070 335 0 335 0 0 1070 0 1070 -335 0 -335 0 0
-1070z"></path>
      <path d="M3930 3690 l0 -1070 395 0 395 0 0 1070 0 1070 -395 0 -395 0 0
-1070z"></path>
      <path d="M1110 1315 l0 -1065 355 0 355 0 0 1065 0 1065 -355 0 -355 0 0
-1065z"></path>
      <path d="M2060 1315 l0 -1065 360 0 360 0 0 1065 0 1065 -360 0 -360 0 0
-1065z"></path>
      <path d="M3020 1315 l0 -1065 335 0 335 0 0 1065 0 1065 -335 0 -335 0 0
-1065z"></path>
      <path d="M3930 1315 l0 -1065 395 0 395 0 0 1065 0 1065 -395 0 -395 0 0
-1065z"></path>
    </g>
  </symbol>
  <symbol version="1.0" xmlns="http://www.w3.org/2000/svg" preserveAspectRatio="xMidYMid meet" viewBox="0 0 500.000000 500.000000" id="cap-10">
    <g transform="translate(0.000000,500.000000) scale(0.100000,-0.100000)" fill="#000000" stroke="none">
      <path d="M260 3690 l0 -1070 305 0 305 0 0 1070 0 1070 -305 0 -305 0 0 -1070z"></path>
      <path d="M1110 3690 l0 -1070 355 0 355 0 0 1070 0 1070 -355 0 -355 0 0
-1070z"></path>
      <path d="M2060 3690 l0 -1070 360 0 360 0 0 1070 0 1070 -360 0 -360 0 0
-1070z"></path>
      <path d="M3020 3690 l0 -1070 335 0 335 0 0 1070 0 1070 -335 0 -335 0 0
-1070z"></path>
      <path d="M3930 3690 l0 -1070 395 0 395 0 0 1070 0 1070 -395 0 -395 0 0
-1070z"></path>
      <path d="M260 1315 l0 -1065 305 0 305 0 0 1065 0 1065 -305 0 -305 0 0 -1065z"></path>
      <path d="M1110 1315 l0 -1065 355 0 355 0 0 1065 0 1065 -355 0 -355 0 0
-1065z"></path>
      <path d="M2060 1315 l0 -1065 360 0 360 0 0 1065 0 1065 -360 0 -360 0 0
-1065z"></path>
      <path d="M3020 1315 l0 -1065 335 0 335 0 0 1065 0 1065 -335 0 -335 0 0
-1065z"></path>
      <path d="M3930 1315 l0 -1065 395 0 395 0 0 1065 0 1065 -395 0 -395 0 0
-1065z"></path>
    </g>
  </symbol>
</svg>